<?xml version="1.0" encoding="utf-8"?>
<!-- Generator: Adobe Illustrator 28.2.0, SVG Export Plug-In . SVG Version: 6.00 Build 0)  -->
<svg version="1.1" id="Layer_1" xmlns="http://www.w3.org/2000/svg" xmlns:xlink="http://www.w3.org/1999/xlink" x="0px" y="0px"
	 viewBox="0 0 308.7 229.2" style="enable-background:new 0 0 308.7 229.2;" xml:space="preserve">
<g>
	<path d="M55.2,188.7v-1.1H58v-24.7h-2.8v-1.1h10.7v1.1h-2.8v11.7H75v-11.7h-2.8v-1.1H83v1.1h-2.8v24.7H83v1.1H72.3v-1.1H75v-12
		H63.1v12h2.8v1.1H55.2z"/>
	<path d="M87,188.7v-1.1h2.8v-24.7H87v-1.1h10.7v1.1h-2.8v24.7h2.8v1.1H87z"/>
	<path d="M107.1,185.7c2,1.6,4.2,2.3,6.8,2.3c0.8,0,1.5-0.1,2.2-0.3s1.3-0.3,1.6-0.5c0.3-0.2,0.9-0.4,1.6-0.8v-8.7h-2.8v-1.1h9.9
		v1.1h-2v10.9h-0.9c-0.5-1.2-1.3-1.7-2.2-1.7c-0.4,0-1.1,0.2-2,0.7c-1.9,1-3.8,1.5-5.5,1.5c-3.6,0-6.7-1.4-9.1-4.1
		c-2.4-2.7-3.6-6.1-3.6-10s1.2-7.2,3.7-9.8s5.6-3.9,9.4-3.9c3.4,0,6.3,1.1,8.5,3.3v-2.8h1v6.9h-1v-2.4c-0.2-0.2-0.4-0.5-0.7-0.8
		c-0.3-0.3-0.8-0.7-1.5-1.2s-1.6-0.9-2.7-1.3c-1.1-0.3-2.3-0.5-3.6-0.5c-2.8,0-5.2,0.8-7.2,2.3L107.1,185.7L107.1,185.7z"/>
	<path d="M129.7,188.7v-1.1h2.8v-24.7h-2.8v-1.1h10.7v1.1h-2.8v11.7h11.9v-11.7h-2.8v-1.1h10.7v1.1h-2.8v24.7h2.8v1.1h-10.7v-1.1
		h2.8v-12h-11.9v12h2.8v1.1H129.7z"/>
	<polygon points="180.3,183.2 180.3,187.6 169.5,187.6 169.5,162.9 172.2,162.9 172.2,161.8 161.5,161.8 161.5,162.9 164.3,162.9 
		164.3,187.6 161.5,187.6 161.5,188.7 181.3,188.7 181.3,183.2 	"/>
	<path d="M182,188.7v-1.1h2.1l9.7-26h1l10,26h1.8v1.1h-9.8v-1.1h2.6l-2.4-6.3h-9.5l-2.4,6.3h3v1.1H182z M188,180.2h8.7l-4.4-11.5
		L188,180.2z"/>
	<path d="M208.4,188.7v-1.1h2.8v-24.7h-2.8v-1.1h7.1l14.6,18.1v-17h-2.8v-1.1h6.6v1.1h-2.8v25.8h-0.8l-18.1-22.2v21.1h2.8v1.1
		L208.4,188.7L208.4,188.7z"/>
	<path d="M237.6,188.7v-1.1h2.8v-24.7h-2.8v-1.1h11.8c3.7,0,6.8,1.3,9.3,3.9c2.5,2.6,3.7,5.8,3.7,9.5c0,3.8-1.2,7-3.7,9.6
		s-5.5,3.9-9.3,3.9L237.6,188.7L237.6,188.7z M245.5,187.6h3.8c2.7,0,5.1-0.8,7.1-2.3v-20.1c-2.1-1.5-4.4-2.3-7.1-2.3h-3.8
		L245.5,187.6L245.5,187.6z"/>
</g>
<rect x="191.7" y="161.6" width="3.2" height="1.2"/>
<g>
	<path d="M104.9,209.9v-0.4h0.9v-8.2h-0.9v-0.4h3.4v0.4h-0.9v3.8h3.8v-3.8h-0.9v-0.4h3.4v0.4h-0.9v8.2h0.9v0.4h-3.4v-0.4h0.9v-4
		h-3.8v4h0.9v0.4H104.9z"/>
	<path d="M115,209.9v-0.4h0.9v-8.2H115v-0.4h6.4v2.3h-0.3v-1.9h-3.5v3.9h2.4V204h0.3v2.6H120v-1.1h-2.4v3.9h3.6v-2h0.3v2.3
		L115,209.9z"/>
	<path d="M122.1,209.9v-0.4h0.7l3.1-8.6h0.3l3.2,8.6h0.6v0.4h-3.1v-0.4h0.8l-0.8-2.1h-3l-0.8,2.1h1v0.4H122.1z M124,207.2h2.8
		l-1.4-3.8L124,207.2z"/>
	<path d="M130.5,210v-0.4h0.9v-8.2h-0.9V201h3.8c1.2,0,2.2,0.4,3,1.3c0.8,0.9,1.2,1.9,1.2,3.1c0,1.2-0.4,2.3-1.2,3.2s-1.8,1.3-3,1.3
		L130.5,210z M133,209.6h1.2c0.9,0,1.6-0.3,2.3-0.8v-6.6c-0.7-0.5-1.4-0.8-2.3-0.8H133V209.6z"/>
	<path d="M140.8,208.8c-0.8-0.9-1.2-2-1.2-3.2c0-1.3,0.4-2.3,1.2-3.2s1.8-1.3,3-1.3s2.2,0.5,3,1.4s1.2,2,1.2,3.2
		c0,1-0.3,1.9-0.8,2.6c-0.5,0.8-1.2,1.3-2,1.6c0,0,0,0.1,0.1,0.2c0,0.1,0.1,0.2,0.1,0.2s0,0.1,0.1,0.2c0,0.1,0.1,0.2,0.1,0.2
		c0,0.1,0.1,0.1,0.1,0.2s0.1,0.2,0.1,0.2l0.1,0.1c0.1,0,0.1,0.1,0.2,0.1c0.1,0,0.1,0,0.2,0c0.2,0,0.4-0.1,0.6-0.3
		c0.2-0.2,0.2-0.4,0.2-0.7h0.3c0,0.4-0.1,0.7-0.3,1s-0.5,0.4-0.8,0.4c-0.1,0-0.2,0-0.3,0s-0.2,0-0.2-0.1c-0.1,0-0.1-0.1-0.2-0.1
		c-0.1-0.1-0.1-0.1-0.2-0.2c0,0-0.1-0.1-0.1-0.2c-0.1-0.1-0.1-0.2-0.1-0.2s-0.1-0.1-0.1-0.3c0-0.1-0.1-0.2-0.1-0.2s0-0.1-0.1-0.3
		c0-0.1-0.1-0.2-0.1-0.3c-0.4,0.1-0.8,0.2-1.1,0.1C142.6,210.1,141.6,209.7,140.8,208.8z M141.5,208.9c0.4,0.3,0.8,0.5,1.3,0.7
		c0.1-0.4,0.2-0.7,0.4-0.9s0.5-0.3,0.8-0.3s0.5,0.1,0.7,0.3s0.3,0.5,0.5,0.8c0.3-0.1,0.7-0.3,1-0.6v-6.8c-0.7-0.6-1.5-0.9-2.3-0.9
		c-0.9,0-1.7,0.3-2.3,0.8L141.5,208.9z M143.1,209.7c0.2,0,0.5,0.1,0.7,0.1c0.3,0,0.7,0,1-0.1c-0.2-0.6-0.5-0.9-0.8-0.9
		c-0.2,0-0.4,0.1-0.6,0.3C143.2,209.2,143.1,209.4,143.1,209.7z"/>
	<path d="M151.4,209.3c0.5,0.3,1,0.5,1.7,0.5c0.8,0,1.5-0.3,2.1-0.8c0.5-0.5,0.8-1.3,0.8-2.4v-5.1h-0.9v-0.4h2.1v0.4h-0.9v5.1
		c0,1.2-0.3,2.1-0.9,2.7c-0.6,0.6-1.4,0.9-2.3,0.9c-1,0-1.8-0.3-2.4-0.9c-0.6-0.6-0.9-1.5-0.9-2.7v-5.1h-0.9v-0.4h3.4v0.4h-0.9
		L151.4,209.3z"/>
	<path d="M157.1,210v-0.4h0.7l3.1-8.6h0.3l3.2,8.6h0.6v0.4h-3.1v-0.4h0.8l-0.8-2.1h-3l-0.8,2.1h1v0.4H157.1z M159,207.2h2.8
		l-1.4-3.8L159,207.2z"/>
	<path d="M165.5,210v-0.4h0.9v-8.2h-0.9V201h4c0.8,0,1.4,0.2,1.9,0.7s0.7,1,0.7,1.7c0,0.9-0.4,1.7-1.2,2.2c0.8,0.4,1.1,1.1,1.1,2.1
		v2c0.3-0.1,0.5-0.2,0.6-0.5c0.2-0.3,0.3-0.5,0.3-0.9h0.3c0,0.5-0.1,0.9-0.4,1.2c-0.3,0.3-0.6,0.5-1,0.5s-0.8-0.2-1.1-0.5
		s-0.4-0.8-0.4-1.3v-2.4h-2.2v3.7h0.9v0.4L165.5,210z M168.1,205.6h2.2v-4c-0.2-0.1-0.5-0.1-0.8-0.1h-1.5L168.1,205.6z"/>
	<path d="M175.5,210.1v-0.4h0.9v-8.2h-2.5v1.9h-0.3v-2.3h7.4v2.3h-0.3v-1.9h-2.5v8.2h0.9v0.4H175.5z"/>
	<path d="M182,210.1v-0.4h0.9v-8.2H182v-0.4h6.4v2.3h-0.3v-1.9h-3.5v3.9h2.4v-1.2h0.3v2.6h-0.3v-1.1h-2.4v3.9h3.6v-2h0.3v2.3
		L182,210.1z"/>
	<path d="M189.8,210.1v-0.4h0.9v-8.2h-0.9v-0.4h4c0.8,0,1.4,0.2,1.9,0.7s0.7,1,0.7,1.7c0,0.9-0.4,1.7-1.2,2.2
		c0.8,0.4,1.1,1.1,1.1,2.1v2c0.3-0.1,0.5-0.2,0.6-0.5c0.2-0.3,0.3-0.5,0.3-0.9h0.3c0,0.5-0.1,0.9-0.4,1.2c-0.3,0.3-0.6,0.5-1,0.5
		s-0.8-0.2-1.1-0.5s-0.4-0.8-0.4-1.3v-2.4h-2.2v3.7h0.9v0.4L189.8,210.1z M192.4,205.7h2.2v-4c-0.2-0.1-0.5-0.1-0.8-0.1h-1.5
		L192.4,205.7z"/>
	<path d="M198.4,210.2v-2.6h0.3v0.9c0.1,0.1,0.2,0.2,0.3,0.3s0.3,0.3,0.5,0.5s0.5,0.3,0.8,0.5c0.3,0.1,0.7,0.2,1,0.2
		c0.5,0,0.9-0.1,1.3-0.3c0.4-0.2,0.7-0.5,0.9-0.9c-0.1-0.2-0.3-0.4-0.5-0.6l-3.3-2.3c-0.5-0.3-0.8-0.7-1-1s-0.3-0.7-0.3-1.1
		c0-0.8,0.3-1.4,0.8-1.9c0.5-0.4,1.2-0.7,1.9-0.7c0.8,0,1.5,0.3,2.1,0.8v-0.7h0.3v2.3h-0.3v-1.1c-0.1-0.1-0.2-0.2-0.3-0.3
		s-0.4-0.2-0.7-0.4c-0.3-0.1-0.7-0.2-1.1-0.2c-0.5,0-0.9,0.1-1.3,0.3c-0.4,0.2-0.7,0.5-0.9,0.9c0.1,0.2,0.2,0.4,0.5,0.6l3.3,2.4
		c0.4,0.3,0.7,0.6,0.9,0.9c0.2,0.3,0.3,0.7,0.3,1.1c0,0.8-0.3,1.4-0.8,1.9s-1.1,0.7-1.9,0.7c-1,0-1.8-0.4-2.6-1.2v1.1L198.4,210.2z"
		/>
</g>
<path d="M109.5,64.5c-21.9,4.6-43.1,4.1-62.7-8.7c-0.3,0.4-0.6,0.8-0.9,1.2c3.2,2.9,6.1,6.4,9.7,8.7c9.3,6.2,19.9,8.8,30.8,10.3
	c5.2,0.7,10.4,1.4,15.5,2.4c2.2,0.4,4.3,1.6,6.4,2.4c-6.6-0.6-13.2-0.9-19.6-1.9c-8.6-1.4-17.2-2.8-25.6-5.1
	c-13.5-3.7-21.4-13.5-25.5-26.5c-3.5-11.2-4-22.7-3.1-34.3c0.4-0.1,0.8-0.2,1.2-0.3c0.4,1.8,0.7,3.6,1.1,5.4c1.3,6,2,12.1,3.9,17.9
	C45,49.3,54,58.1,67.8,61.9c12.1,3.3,24.4,3.6,36.9,2.9C106.3,64.7,107.9,64.6,109.5,64.5z"/>
<path d="M214.4,81.4c1.1-0.9,2.1-2.3,3.4-2.6c4.4-1,8.8-1.9,13.3-2.4c11.1-1.2,21.9-3.7,31.7-9c4.8-2.6,9.2-6,12.5-12.3
	c-20.6,13.5-41.9,14-64,9.6c0.7,0,1.4-0.1,2.1-0.1c0.7,0,1.5,0.2,2.2,0.2c11.5-0.7,23.1-0.5,34.3-2.3c16.8-2.7,27-13.5,31.3-29.8
	c1.4-5.5,2.2-11.1,3.2-16.7c0.2-1.2,0.5-2.3,1.6-3.3c0,7.5,0.3,14.9-0.1,22.4c-0.2,4-1.4,8-2.6,11.9c-4.1,13.4-12.3,23.3-26.2,26.9
	c-9.3,2.4-18.8,3.5-28.3,5.1C224.1,79.8,219.3,80.6,214.4,81.4L214.4,81.4z"/>
<path d="M131.8,149.5c-6.9-2.1-13.1-13.3-10.7-21.5c1.7-5.7,4.5-11.5,8.3-16c4.9-5.8,11-10.8,17.1-15.5c11.4-9,11.5-8.8,16.2-21.1
	c0.4,0.1,0.8,0.2,1.3,0.4c-1.2,3.9-1.6,8.1-3.6,11.5c-2.7,4.4-6.1,8.6-10,12c-10.1,9-16.5,19.5-15.5,33.6c-0.4,0-0.7,0.1-1.1,0.1
	c-0.6-2.7-1.3-5.3-1.6-8s-0.1-5.4-0.1-8.2c-9.4,7.4-9.3,23.7,0,33L131.8,149.5z"/>
<path d="M133,66.1c-6.3-1-10.4,3-14.8,6.9c2.8-8.1,9.2-11.2,27.8-13.5c-1.4-0.9-2.3-1.5-3.2-2.1c0.1-0.3,0.2-0.6,0.3-0.9
	c5,0.8,10.1,1.5,15.1,2.3c0.1,0.5,0.2,1,0.3,1.4c-21.5,5.4-38,16.5-45.5,38.4C114.3,84.5,121.8,74.3,133,66.1z"/>
<path d="M173,73.6c14.8,21.2,12.6,46.9-1.9,67.4c4.3-10.8,8.7-20.4,8.3-31.9c-3.9,5.4-7.3,10.2-10.7,14.9l0.1-0.1
	c0.3-1.4,0.4-2.8,1-4c6.6-14.1,9.1-28.6,3.4-43.7C172.8,75.4,173.1,74.5,173,73.6C173.1,73.6,173,73.6,173,73.6z"/>
<path d="M192.8,98c-1.1-5.5-1.7-11.2-3.4-16.5c-1.6-4.9-4-9.7-7-13.9c-4.3-6-10.8-8-18.1-7.8c0-0.5-0.1-1-0.1-1.5
	c3.3-0.4,6.6-1.4,9.8-1.1c2.8,0.2,5.4,1.9,8.1,3c4.9,1.9,9.8,3.8,14.5,5.7c-0.6,0.2-2.1,1.1-3.5,1c-4.1-0.2-3.6,1.3-2.4,4.2
	C194.3,79.9,195,88.9,192.8,98z"/>
<path d="M151.8,132.3c-0.6-6.4,2.1-12.4,5.5-18.3c0.4-0.7,3.7-2.7-0.6-2.8c0-0.5-0.1-1,0.1-1.4c0.3-0.6,0.8-1.3,1.3-1.7
	c6.1-5.4,9.9-12.1,10.9-21.2c1.4,6.4,0.5,12.8-2.8,18.7c-2.5,4.4-5.6,8.6-8,13C155.8,123.2,153.8,128,151.8,132.3z"/>
<path d="M150.8,70.4c0.7,7.9-3.2,13.6-11.1,15.4c-7.4,1.7-13.8,4.4-17.5,11.6c-0.4-0.4-0.8-0.7-1.2-1.1c1.9-2.7,3.5-5.8,5.9-8
	c2.6-2.3,5.8-4.1,9-5.2C142.8,81.1,148.5,77.9,150.8,70.4z"/>
<path d="M205.3,100.2C207,86,207,86,201,71.1C209.6,77.5,211.6,89.5,205.3,100.2z"/>
<path d="M149.8,110.6c-3.8,7.4-7.2,14.9-7,23.9c-3.7-7.2,0.1-19.3,7.1-23.8L149.8,110.6z"/>
<path d="M128.9,101.8c-4,5-8.2,10.4-11.8,15C116.6,109.9,122.6,102.1,128.9,101.8z"/>
<path d="M184.5,114.4c2.7-3.1,5.1-6.4,8.1-9.2c2.6-2.5,5.7-4.4,8.7-6.7c-0.6,3.1-2,6-5.2,8.1C192.2,109.1,188.4,111.8,184.5,114.4
	L184.5,114.4z"/>
<path d="M214.4,81.4c-0.3-0.1-0.7-0.1-1-0.2C213.7,81.2,214.1,81.3,214.4,81.4L214.4,81.4z"/>
<path d="M184.6,114.4c0,0.2,0.1,0.4,0.1,0.6c0-0.1,0-0.2,0-0.2C184.7,114.6,184.6,114.5,184.6,114.4
	C184.5,114.4,184.6,114.4,184.6,114.4z"/>
<path d="M173.1,73.6l-0.3,0.1l0.2-0.2C173,73.6,173.1,73.6,173.1,73.6z"/>
<path d="M149.9,110.7c0-0.1,0-0.2,0.1-0.3c-0.1,0.1-0.1,0.1-0.2,0.2C149.8,110.6,149.9,110.7,149.9,110.7z"/>
<polygon points="168.6,123.9 168.4,123.8 168.7,123.8 "/>
<path d="M131.9,149.6c-0.1,0-0.2,0-0.3,0c0-0.1,0.1-0.1,0.2-0.2C131.8,149.5,131.9,149.6,131.9,149.6z"/>
</svg>
