<svg xmlns="http://www.w3.org/2000/svg" fill="#f9fafb" xml:space="preserve" style="enable-background:new 0 0 792 304.8" viewBox="0 0 792 304.8" width="200" height="77">
  <path d="M38.4 150v-3.7H48V60.4h-9.6v-3.7h36.9v3.7h-9.6V101H107V60.4h-9.6v-3.7h36.9v3.7h-9.6v85.9h9.6v3.7H97.4v-3.7h9.6v-41.7H65.7v41.7h9.6v3.7H38.4zM148.3 150v-3.7h9.6V60.4h-9.6v-3.7h36.9v3.7h-9.6v85.9h9.6v3.7h-36.9zM217.6 139.6c6.7 5.4 14.6 8.1 23.5 8.1 2.6 0 5.2-.3 7.7-.9 2.5-.6 4.4-1.2 5.6-1.7 1.2-.5 3-1.4 5.5-2.6v-30.3h-9.6v-3.7h34.1v3.7h-6.7V150h-3c-1.9-4-4.4-6-7.6-6-1.4 0-3.7.8-6.7 2.3-6.6 3.5-13 5.2-19.1 5.2-12.6 0-23-4.7-31.4-14.2-8.3-9.5-12.5-21.1-12.5-34.7s4.3-24.9 12.8-33.9 19.4-13.4 32.5-13.4c11.8 0 21.6 3.8 29.2 11.3v-9.9h3.6v23.9h-3.6v-8.4c-.6-.8-1.4-1.8-2.5-2.8-1.1-1.1-2.7-2.5-5.1-4.3-2.3-1.8-5.4-3.2-9.2-4.4-3.8-1.2-8-1.8-12.5-1.8-9.5 0-17.8 2.7-25 8v72.7zM295.9 150v-3.7h9.6V60.4h-9.6v-3.7h36.9v3.7h-9.6V101h41.3V60.4h-9.6v-3.7h36.9v3.7h-9.6v85.9h9.6v3.7h-36.9v-3.7h9.6v-41.7h-41.3v41.7h9.6v3.7h-36.9zM470.4 130.9v15.4H433V60.4h9.6v-3.7h-36.9v3.7h9.6v85.9h-9.6v3.7H474v-19.1zM476.6 150v-3.7h7.2l33.5-90.4h3.4l34.7 90.4h6.3v3.7h-33.8v-3.7h9.1l-8.3-21.9h-32.8l-8.1 21.9h10.5v3.7h-21.7zm20.7-29.4h30l-15.2-40-14.8 40zM567.5 150v-3.7h9.6V60.4h-9.6v-3.7h24.4l50.5 62.9V60.4h-9.6v-3.7h22.7v3.7H646V150h-2.8l-62.5-76.9v73.2h9.6v3.7h-22.8zM668.3 150v-3.7h9.6V60.4h-9.6v-3.7h40.6c12.9 0 23.6 4.5 32 13.5 8.5 9 12.7 20 12.7 33 0 13.1-4.2 24.1-12.7 33.2-8.5 9.1-19.2 13.6-32 13.6h-40.6zm27.3-3.7h13.3c9.4 0 17.6-2.7 24.6-8.1V68.4c-7.1-5.3-15.3-8-24.6-8h-13.3v85.9zM341.3 270.7v-1.9h5.2v-44.9h-5.2V222h20.2v1.9h-5.2V245H379v-21.2h-5.2v-1.9H394v1.9h-5.2v44.9h5.2v1.9h-20.2v-1.9h5.2V247h-22.7v21.8h5.2v1.9h-20.2zM407.9 264.1c-4.9-4.9-7.3-10.8-7.3-17.7s2.4-12.9 7.3-17.8 10.8-7.4 17.7-7.4c6.9 0 12.8 2.5 17.7 7.4 4.9 4.9 7.3 10.9 7.3 17.8 0 5.4-1.5 10.3-4.6 14.6-3.1 4.3-7.1 7.3-12 9 .1.3.3.7.5 1.3.2.6.4 1.1.5 1.3.1.3.2.7.4 1.2s.4 1 .6 1.3c.2.3.4.7.8 1.3.3.5.6.9.9 1.1.2.2.5.4.8.7.3.3.7.4 1 .5.4.1.8.1 1.2.1 1.4 0 2.5-.6 3.4-1.7.9-1.1 1.4-2.5 1.4-4.1h2c0 2.1-.6 3.9-1.9 5.4-1.3 1.5-2.9 2.3-4.8 2.3-.5 0-1-.1-1.5-.2s-.9-.3-1.3-.4c-.4-.1-.7-.4-1.1-.7l-.9-.9c-.2-.2-.5-.6-.8-1.2-.3-.6-.5-.9-.7-1.2-.1-.2-.3-.7-.6-1.4s-.4-1.1-.5-1.3c-.1-.2-.2-.7-.5-1.5s-.5-1.3-.5-1.4c-2.3.6-4.4.8-6.6.8-7.1.1-13-2.3-17.9-7.2zm3.9.8c2.3 1.7 4.8 3 7.6 3.7.3-2 1.1-3.6 2.4-4.9 1.3-1.2 2.8-1.8 4.7-1.8 1.7 0 3.1.5 4.2 1.6s2 2.6 2.8 4.5c2.1-.7 4.1-1.8 6-3.2v-37.2c-4.1-3.1-8.7-4.7-13.8-4.7-5.2 0-9.8 1.6-13.8 4.7v37.3zm9.5 4.2c1.4.3 2.8.4 4.2.4 2 0 4-.3 5.9-.8-1.2-3.2-2.9-4.8-5-4.8-1.4 0-2.5.5-3.4 1.4-.9 1-1.5 2.3-1.7 3.8zM36 179.7h720v10.9H36z"/>
  <path d="M513.2 55.9h12.9v4.2h-12.9z"/>
</svg>
